<?xml version="1.0"?>
<svg xmlns="http://www.w3.org/2000/svg" xmlns:xlink="http://www.w3.org/1999/xlink" width="32" height="32" viewBox="59 7 16 15" version="1.0">
  <g>
    <path fill="#7ed957" d="M 63.066406 16.03125 C 62.972656 15.960938 62.910156 15.855469 62.894531 15.730469 C 62.863281 15.484375 63.039062 15.257812 63.289062 15.230469 C 63.84375 15.160156 64.398438 15.203125 64.9375 15.355469 C 65.453125 15.503906 65.929688 15.75 66.355469 16.082031 C 66.78125 16.414062 67.136719 16.820312 67.402344 17.285156 C 67.679688 17.769531 67.855469 18.296875 67.925781 18.855469 C 67.957031 19.101562 67.777344 19.328125 67.53125 19.359375 C 67.285156 19.386719 67.058594 19.210938 67.027344 18.964844 C 66.921875 18.101562 66.488281 17.328125 65.800781 16.792969 C 65.113281 16.257812 64.261719 16.019531 63.398438 16.125 C 63.273438 16.140625 63.15625 16.105469 63.066406 16.03125"/>
    <path fill="#7ed957" d="M 69.980469 18.925781 C 69.886719 18.855469 69.824219 18.75 69.808594 18.625 C 69.402344 15.308594 66.375 12.9375 63.058594 13.34375 C 62.808594 13.375 62.585938 13.199219 62.554688 12.953125 C 62.523438 12.703125 62.699219 12.480469 62.949219 12.449219 C 63.878906 12.335938 64.808594 12.40625 65.703125 12.664062 C 66.570312 12.910156 67.371094 13.316406 68.082031 13.875 C 68.796875 14.433594 69.382812 15.109375 69.832031 15.890625 C 70.296875 16.699219 70.589844 17.582031 70.707031 18.515625 C 70.734375 18.761719 70.558594 18.988281 70.3125 19.019531 C 70.1875 19.03125 70.070312 18.996094 69.980469 18.925781"/>
    <path fill="#7ed957" d="M 72.816406 18.578125 C 72.726562 18.507812 72.660156 18.402344 72.644531 18.277344 C 72.050781 13.394531 67.589844 9.910156 62.710938 10.507812 C 62.460938 10.539062 62.238281 10.363281 62.207031 10.113281 C 62.175781 9.867188 62.351562 9.640625 62.601562 9.609375 C 63.917969 9.449219 65.226562 9.550781 66.488281 9.914062 C 67.097656 10.085938 67.691406 10.320312 68.253906 10.609375 C 68.8125 10.894531 69.347656 11.234375 69.84375 11.625 C 70.339844 12.011719 70.796875 12.445312 71.210938 12.921875 C 71.625 13.398438 71.996094 13.917969 72.3125 14.464844 C 72.96875 15.605469 73.382812 16.851562 73.542969 18.167969 C 73.574219 18.414062 73.398438 18.640625 73.148438 18.671875 C 73.027344 18.6875 72.90625 18.648438 72.816406 18.578125"/>
  </g>
</svg> 