<?xml version="1.0"?>
<svg xmlns="http://www.w3.org/2000/svg" xmlns:xlink="http://www.w3.org/1999/xlink" width="70" height="37" viewBox="33 7 45 30" preserveAspectRatio="xMidYMid meet" version="1.0" style="background-color:transparent;">
  <defs>
    <g/>
    <clipPath id="1c4ff501bb">
      <path d="M 0.550781 0 L 101.949219 0 L 101.949219 37.007812 L 0.550781 37.007812 Z M 0.550781 0 " clip-rule="nonzero"/>
    </clipPath>
    <clipPath id="3ec7e4b5a1">
      <path d="M 62 15 L 68 15 L 68 20 L 62 20 Z M 62 15 " clip-rule="nonzero"/>
    </clipPath>
    <clipPath id="615c7b1e39">
      <path d="M 64.269531 7.261719 L 75.347656 15.921875 L 70.789062 21.753906 L 59.710938 13.089844 Z M 64.269531 7.261719 " clip-rule="nonzero"/>
    </clipPath>
    <clipPath id="62fa6b0124">
      <path d="M 64.269531 7.261719 L 75.347656 15.921875 L 70.789062 21.753906 L 59.710938 13.089844 Z M 64.269531 7.261719 " clip-rule="nonzero"/>
    </clipPath>
    <clipPath id="7d8eadc266">
      <path d="M 63.933594 14.183594 L 68.78125 17.976562 L 67.554688 19.542969 L 62.707031 15.753906 Z M 63.933594 14.183594 " clip-rule="nonzero"/>
    </clipPath>
    <clipPath id="803e233202">
      <path d="M 62 12 L 71 12 L 71 20 L 62 20 Z M 62 12 " clip-rule="nonzero"/>
    </clipPath>
    <clipPath id="daab45ac53">
      <path d="M 64.269531 7.261719 L 75.347656 15.921875 L 70.789062 21.753906 L 59.710938 13.089844 Z M 64.269531 7.261719 " clip-rule="nonzero"/>
    </clipPath>
    <clipPath id="dea1bb266e">
      <path d="M 64.269531 7.261719 L 75.347656 15.921875 L 70.789062 21.753906 L 59.710938 13.089844 Z M 64.269531 7.261719 " clip-rule="nonzero"/>
    </clipPath>
    <clipPath id="5b5fab848e">
      <path d="M 62 9 L 74 9 L 74 19 L 62 19 Z M 62 9 " clip-rule="nonzero"/>
    </clipPath>
    <clipPath id="b1d714f8f1">
      <path d="M 64.269531 7.261719 L 75.347656 15.921875 L 70.789062 21.753906 L 59.710938 13.089844 Z M 64.269531 7.261719 " clip-rule="nonzero"/>
    </clipPath>
    <clipPath id="2d6622b75c">
      <path d="M 64.269531 7.261719 L 75.347656 15.921875 L 70.789062 21.753906 L 59.710938 13.089844 Z M 64.269531 7.261719 " clip-rule="nonzero"/>
    </clipPath>
    <clipPath id="36af351af2">
      <path d="M 64.269531 7.261719 L 75.417969 15.984375 L 73.167969 18.859375 L 62.019531 10.140625 Z M 64.269531 7.261719 " clip-rule="nonzero"/>
    </clipPath>
  </defs>
  <g clip-path="url(#1c4ff501bb)">
    <path fill="none" d="M 0.550781 0 L 101.949219 0 L 101.949219 37.007812 L 0.550781 37.007812 Z M 0.550781 0 " fill-opacity="1" fill-rule="nonzero"/>
    <path fill="none" d="M 0.550781 0 L 101.949219 0 L 101.949219 37.007812 L 0.550781 37.007812 Z M 0.550781 0 " fill-opacity="1" fill-rule="nonzero"/>
  </g>
  <g clip-path="url(#3ec7e4b5a1)">
    <g clip-path="url(#615c7b1e39)">
      <g clip-path="url(#62fa6b0124)">
        <g clip-path="url(#7d8eadc266)">
          <path fill="#7ed957" d="M 63.066406 16.03125 C 62.972656 15.960938 62.910156 15.855469 62.894531 15.730469 C 62.863281 15.484375 63.039062 15.257812 63.289062 15.230469 C 63.84375 15.160156 64.398438 15.203125 64.9375 15.355469 C 65.453125 15.503906 65.929688 15.75 66.355469 16.082031 C 66.78125 16.414062 67.136719 16.820312 67.402344 17.285156 C 67.679688 17.769531 67.855469 18.296875 67.925781 18.855469 C 67.957031 19.101562 67.777344 19.328125 67.53125 19.359375 C 67.285156 19.386719 67.058594 19.210938 67.027344 18.964844 C 66.921875 18.101562 66.488281 17.328125 65.800781 16.792969 C 65.113281 16.257812 64.261719 16.019531 63.398438 16.125 C 63.273438 16.140625 63.15625 16.105469 63.066406 16.03125 " fill-opacity="1" fill-rule="nonzero"/>
        </g>
      </g>
    </g>
  </g>
  <g clip-path="url(#803e233202)">
    <g clip-path="url(#daab45ac53)">
      <g clip-path="url(#dea1bb266e)">
        <path fill="#7ed957" d="M 69.980469 18.925781 C 69.886719 18.855469 69.824219 18.75 69.808594 18.625 C 69.402344 15.308594 66.375 12.9375 63.058594 13.34375 C 62.808594 13.375 62.585938 13.199219 62.554688 12.953125 C 62.523438 12.703125 62.699219 12.480469 62.949219 12.449219 C 63.878906 12.335938 64.808594 12.40625 65.703125 12.664062 C 66.570312 12.910156 67.371094 13.316406 68.082031 13.875 C 68.796875 14.433594 69.382812 15.109375 69.832031 15.890625 C 70.296875 16.699219 70.589844 17.582031 70.707031 18.515625 C 70.734375 18.761719 70.558594 18.988281 70.3125 19.019531 C 70.1875 19.03125 70.070312 18.996094 69.980469 18.925781 " fill-opacity="1" fill-rule="nonzero"/>
      </g>
    </g>
  </g>
  <g clip-path="url(#5b5fab848e)">
    <g clip-path="url(#b1d714f8f1)">
      <g clip-path="url(#2d6622b75c)">
        <g clip-path="url(#36af351af2)">
          <path fill="#7ed957" d="M 72.816406 18.578125 C 72.726562 18.507812 72.660156 18.402344 72.644531 18.277344 C 72.050781 13.394531 67.589844 9.910156 62.710938 10.507812 C 62.460938 10.539062 62.238281 10.363281 62.207031 10.113281 C 62.175781 9.867188 62.351562 9.640625 62.601562 9.609375 C 63.917969 9.449219 65.226562 9.550781 66.488281 9.914062 C 67.097656 10.085938 67.691406 10.320312 68.253906 10.609375 C 68.8125 10.894531 69.347656 11.234375 69.84375 11.625 C 70.339844 12.011719 70.796875 12.445312 71.210938 12.921875 C 71.625 13.398438 71.996094 13.917969 72.3125 14.464844 C 72.96875 15.605469 73.382812 16.851562 73.542969 18.167969 C 73.574219 18.414062 73.398438 18.640625 73.148438 18.671875 C 73.027344 18.6875 72.90625 18.648438 72.816406 18.578125 " fill-opacity="1" fill-rule="nonzero"/>
        </g>
      </g>
    </g>
  </g>
  <g fill="#0077be" fill-opacity="1">
    <g transform="translate(33.312432, 23.789252)">
      <g>
        <path d="M 2.390625 0.09375 C 1.972656 0.09375 1.566406 0.0351562 1.171875 -0.078125 C 0.773438 -0.191406 0.457031 -0.34375 0.21875 -0.53125 L 0.640625 -1.46875 C 0.867188 -1.289062 1.140625 -1.148438 1.453125 -1.046875 C 1.765625 -0.953125 2.082031 -0.90625 2.40625 -0.90625 C 2.757812 -0.90625 3.019531 -0.957031 3.1875 -1.0625 C 3.351562 -1.164062 3.4375 -1.304688 3.4375 -1.484375 C 3.4375 -1.609375 3.382812 -1.710938 3.28125 -1.796875 C 3.1875 -1.878906 3.0625 -1.945312 2.90625 -2 C 2.75 -2.050781 2.539062 -2.109375 2.28125 -2.171875 C 1.863281 -2.265625 1.523438 -2.359375 1.265625 -2.453125 C 1.003906 -2.554688 0.78125 -2.710938 0.59375 -2.921875 C 0.414062 -3.140625 0.328125 -3.425781 0.328125 -3.78125 C 0.328125 -4.09375 0.410156 -4.375 0.578125 -4.625 C 0.742188 -4.875 0.992188 -5.070312 1.328125 -5.21875 C 1.671875 -5.375 2.085938 -5.453125 2.578125 -5.453125 C 2.921875 -5.453125 3.253906 -5.410156 3.578125 -5.328125 C 3.910156 -5.242188 4.195312 -5.128906 4.4375 -4.984375 L 4.0625 -4.03125 C 3.5625 -4.3125 3.066406 -4.453125 2.578125 -4.453125 C 2.222656 -4.453125 1.960938 -4.394531 1.796875 -4.28125 C 1.628906 -4.175781 1.546875 -4.03125 1.546875 -3.84375 C 1.546875 -3.65625 1.640625 -3.515625 1.828125 -3.421875 C 2.023438 -3.335938 2.320312 -3.253906 2.71875 -3.171875 C 3.125 -3.078125 3.457031 -2.976562 3.71875 -2.875 C 3.976562 -2.78125 4.203125 -2.628906 4.390625 -2.421875 C 4.578125 -2.210938 4.671875 -1.925781 4.671875 -1.5625 C 4.671875 -1.257812 4.582031 -0.984375 4.40625 -0.734375 C 4.238281 -0.484375 3.984375 -0.28125 3.640625 -0.125 C 3.296875 0.0195312 2.878906 0.09375 2.390625 0.09375 Z M 2.390625 0.09375 "/>
      </g>
    </g>
  </g>
  <g fill="#0077be" fill-opacity="1">
    <g transform="translate(38.198996, 23.789252)">
      <g>
        <path d="M 2.3125 -1.609375 L 1.75 -1.046875 L 1.75 0 L 0.546875 0 L 0.546875 -5.6875 L 1.75 -5.6875 L 1.75 -2.46875 L 3.484375 -4.125 L 4.921875 -4.125 L 3.203125 -2.375 L 5.0625 0 L 3.625 0 Z M 2.3125 -1.609375 "/>
      </g>
    </g>
  </g>
  <g fill="#0077be" fill-opacity="1">
    <g transform="translate(43.016573, 23.789252)">
      <g>
        <path d="M 4.640625 -4.125 L 2.78125 0.25 C 2.59375 0.726562 2.359375 1.0625 2.078125 1.25 C 1.796875 1.445312 1.460938 1.546875 1.078125 1.546875 C 0.859375 1.546875 0.644531 1.507812 0.4375 1.4375 C 0.226562 1.375 0.0546875 1.285156 -0.078125 1.171875 L 0.359375 0.328125 C 0.453125 0.398438 0.554688 0.457031 0.671875 0.5 C 0.796875 0.550781 0.914062 0.578125 1.03125 0.578125 C 1.195312 0.578125 1.328125 0.535156 1.421875 0.453125 C 1.523438 0.378906 1.617188 0.25 1.703125 0.0625 L 1.71875 0.03125 L -0.0625 -4.125 L 1.171875 -4.125 L 2.328125 -1.328125 L 3.484375 -4.125 Z M 4.640625 -4.125 "/>
      </g>
    </g>
  </g>
  <g fill="#0077be" fill-opacity="1">
    <g transform="translate(47.566127, 23.789252)">
      <g>
        <path d="M 3.203125 0.09375 C 2.648438 0.09375 2.15625 -0.0234375 1.71875 -0.265625 C 1.28125 -0.503906 0.929688 -0.832031 0.671875 -1.25 C 0.421875 -1.675781 0.296875 -2.15625 0.296875 -2.6875 C 0.296875 -3.207031 0.421875 -3.675781 0.671875 -4.09375 C 0.929688 -4.519531 1.28125 -4.851562 1.71875 -5.09375 C 2.15625 -5.332031 2.648438 -5.453125 3.203125 -5.453125 C 3.671875 -5.453125 4.09375 -5.367188 4.46875 -5.203125 C 4.84375 -5.046875 5.15625 -4.8125 5.40625 -4.5 L 4.609375 -3.765625 C 4.253906 -4.179688 3.804688 -4.390625 3.265625 -4.390625 C 2.929688 -4.390625 2.632812 -4.316406 2.375 -4.171875 C 2.113281 -4.023438 1.910156 -3.820312 1.765625 -3.5625 C 1.617188 -3.300781 1.546875 -3.007812 1.546875 -2.6875 C 1.546875 -2.351562 1.617188 -2.054688 1.765625 -1.796875 C 1.910156 -1.535156 2.113281 -1.332031 2.375 -1.1875 C 2.632812 -1.039062 2.929688 -0.96875 3.265625 -0.96875 C 3.804688 -0.96875 4.253906 -1.175781 4.609375 -1.59375 L 5.40625 -0.859375 C 5.15625 -0.546875 4.835938 -0.304688 4.453125 -0.140625 C 4.078125 0.015625 3.660156 0.09375 3.203125 0.09375 Z M 3.203125 0.09375 "/>
      </g>
    </g>
  </g>
  <g fill="#0077be" fill-opacity="1">
    <g transform="translate(53.149672, 23.789252)">
      <g>
        <path d="M 2.21875 -4.1875 C 2.851562 -4.1875 3.34375 -4.03125 3.6875 -3.71875 C 4.03125 -3.414062 4.203125 -2.957031 4.203125 -2.34375 L 4.203125 0 L 3.078125 0 L 3.078125 -0.515625 C 2.847656 -0.128906 2.429688 0.0625 1.828125 0.0625 C 1.503906 0.0625 1.226562 0.0078125 1 -0.09375 C 0.769531 -0.207031 0.59375 -0.359375 0.46875 -0.546875 C 0.34375 -0.734375 0.28125 -0.945312 0.28125 -1.1875 C 0.28125 -1.570312 0.425781 -1.875 0.71875 -2.09375 C 1.007812 -2.3125 1.453125 -2.421875 2.046875 -2.421875 L 3 -2.421875 C 3 -2.679688 2.921875 -2.878906 2.765625 -3.015625 C 2.609375 -3.160156 2.367188 -3.234375 2.046875 -3.234375 C 1.828125 -3.234375 1.613281 -3.195312 1.40625 -3.125 C 1.195312 -3.0625 1.015625 -2.96875 0.859375 -2.84375 L 0.4375 -3.6875 C 0.65625 -3.84375 0.921875 -3.960938 1.234375 -4.046875 C 1.554688 -4.140625 1.882812 -4.1875 2.21875 -4.1875 Z M 2.125 -0.75 C 2.320312 -0.75 2.5 -0.796875 2.65625 -0.890625 C 2.820312 -0.984375 2.9375 -1.117188 3 -1.296875 L 3 -1.71875 L 2.1875 -1.71875 C 1.695312 -1.71875 1.453125 -1.554688 1.453125 -1.234375 C 1.453125 -1.085938 1.507812 -0.96875 1.625 -0.875 C 1.75 -0.789062 1.914062 -0.75 2.125 -0.75 Z M 2.125 -0.75 "/>
      </g>
    </g>
  </g>
  <g fill="#0077be" fill-opacity="1">
    <g transform="translate(57.875394, 23.789252)">
      <g>
        <path d="M 1.9375 0.0625 C 1.59375 0.0625 1.253906 0.0195312 0.921875 -0.0625 C 0.597656 -0.144531 0.34375 -0.253906 0.15625 -0.390625 L 0.546875 -1.234375 C 0.734375 -1.117188 0.957031 -1.023438 1.21875 -0.953125 C 1.476562 -0.878906 1.734375 -0.84375 1.984375 -0.84375 C 2.484375 -0.84375 2.734375 -0.96875 2.734375 -1.21875 C 2.734375 -1.332031 2.664062 -1.414062 2.53125 -1.46875 C 2.394531 -1.519531 2.1875 -1.5625 1.90625 -1.59375 C 1.5625 -1.644531 1.28125 -1.703125 1.0625 -1.765625 C 0.84375 -1.835938 0.648438 -1.957031 0.484375 -2.125 C 0.328125 -2.289062 0.25 -2.53125 0.25 -2.84375 C 0.25 -3.101562 0.320312 -3.332031 0.46875 -3.53125 C 0.625 -3.738281 0.84375 -3.898438 1.125 -4.015625 C 1.414062 -4.128906 1.757812 -4.1875 2.15625 -4.1875 C 2.445312 -4.1875 2.734375 -4.148438 3.015625 -4.078125 C 3.304688 -4.015625 3.550781 -3.929688 3.75 -3.828125 L 3.34375 -2.96875 C 2.976562 -3.175781 2.582031 -3.28125 2.15625 -3.28125 C 1.90625 -3.28125 1.710938 -3.242188 1.578125 -3.171875 C 1.453125 -3.097656 1.390625 -3.003906 1.390625 -2.890625 C 1.390625 -2.765625 1.457031 -2.675781 1.59375 -2.625 C 1.738281 -2.570312 1.960938 -2.523438 2.265625 -2.484375 C 2.597656 -2.421875 2.867188 -2.359375 3.078125 -2.296875 C 3.296875 -2.234375 3.484375 -2.117188 3.640625 -1.953125 C 3.796875 -1.785156 3.875 -1.550781 3.875 -1.25 C 3.875 -0.988281 3.796875 -0.757812 3.640625 -0.5625 C 3.492188 -0.363281 3.273438 -0.207031 2.984375 -0.09375 C 2.691406 0.0078125 2.34375 0.0625 1.9375 0.0625 Z M 1.9375 0.0625 "/>
      </g>
    </g>
  </g>
  <g fill="#0077be" fill-opacity="1">
    <g transform="translate(61.942427, 23.789252)">
      <g>
        <path d="M 3.203125 -0.203125 C 3.085938 -0.109375 2.941406 -0.0390625 2.765625 0 C 2.597656 0.0390625 2.421875 0.0625 2.234375 0.0625 C 1.742188 0.0625 1.363281 -0.0625 1.09375 -0.3125 C 0.832031 -0.5625 0.703125 -0.929688 0.703125 -1.421875 L 0.703125 -3.109375 L 0.0625 -3.109375 L 0.0625 -4.03125 L 0.703125 -4.03125 L 0.703125 -5.03125 L 1.890625 -5.03125 L 1.890625 -4.03125 L 2.921875 -4.03125 L 2.921875 -3.109375 L 1.890625 -3.109375 L 1.890625 -1.4375 C 1.890625 -1.257812 1.929688 -1.125 2.015625 -1.03125 C 2.109375 -0.9375 2.238281 -0.890625 2.40625 -0.890625 C 2.59375 -0.890625 2.753906 -0.941406 2.890625 -1.046875 Z M 3.203125 -0.203125 "/>
      </g>
    </g>
  </g>
</svg>
